<svg version="1.1" id="Layer_1" xmlns="http://www.w3.org/2000/svg" xmlns:xlink="http://www.w3.org/1999/xlink" x="0px" y="0px"
	 viewBox="0 0 1366 768" style="enable-background:new 0 0 1366 768;" xml:space="preserve">
<title>Lunder Institute Logo</title>
<g>
	<g>
		<path fill="currentColor" class="st0" d="M432.8,373.1V249h28.4v98.2h33.1v25.9H432.8z"/>
		<path class="st0" d="M585.7,346.5c-1.6,6-4.1,11.2-7.5,15.6c-3.4,4.4-7.8,8-13.1,10.5c-5.4,2.6-11.9,3.9-19.5,3.9
			c-7.6,0-14-1.3-19.3-3.9c-5.3-2.6-9.6-6.1-12.9-10.5c-3.3-4.4-5.7-9.6-7.2-15.6c-1.5-6-2.2-12.4-2.2-19.3V249h28.2v75.7
			c0,3.5,0.2,6.8,0.6,9.8c0.4,3,1.1,5.6,2.2,7.8c1.1,2.2,2.5,3.9,4.2,5.2c1.8,1.3,4,1.9,6.8,1.9c2.8,0,5.1-0.6,6.8-1.9
			s3.2-3,4.2-5.2c1.1-2.2,1.8-4.8,2.2-7.8c0.4-3,0.6-6.3,0.6-9.8V249h28.1v78.2C588.1,334.1,587.3,340.5,585.7,346.5z"/>
		<path fill="currentColor" class="st0" d="M665.1,373.1l-28.8-75.6h-0.5l0.7,75.6h-25.1V249h30.9l28.6,76.6h0.5l-0.5-76.6h24.2v124.1H665.1z"/>
		<path fill="currentColor" class="st0" d="M807.1,311.4c0,9.4-1,17.8-3.1,25.4c-2,7.6-5.2,14.1-9.4,19.5c-4.2,5.4-9.6,9.5-16,12.4
			c-6.5,2.9-14.2,4.4-23.1,4.4h-34.9V249h34.9c8.9,0,16.6,1.5,23.1,4.4c6.5,2.9,11.8,7.1,16,12.5c4.2,5.4,7.3,12,9.4,19.6
			C806.1,293.2,807.1,301.8,807.1,311.4z M778.9,311.4c0-12.5-2.1-21.9-6.4-28.3c-4.3-6.4-9.8-9.6-16.6-9.6h-6.8v75h6.8
			c6.8,0,12.3-3.2,16.6-9.6C776.7,332.7,778.9,323.5,778.9,311.4z"/>
		<path class="st0" d="M824.4,373.1V249h60v24.7h-33.1v24.4h30.5v23.1h-30.5v26.7h35.2v25.2H824.4z"/>
		<path class="st0" d="M958.3,373.1l-16.6-49.4h-8.2v49.4h-27V249h39.7c12,0,21.3,3.1,28,9.4c6.6,6.3,10,15.6,10,28
			c0,4.6-0.5,8.7-1.6,12.3c-1,3.6-2.4,6.7-4.1,9.3c-1.7,2.6-3.6,4.7-5.7,6.3c-2.1,1.6-4.1,2.8-6.1,3.5l21.2,55.4H958.3z
			 M956.6,287.9c0-3.2-0.4-5.7-1.3-7.7c-0.9-2-2-3.6-3.4-4.7c-1.4-1.2-3-2-4.6-2.4c-1.7-0.4-3.4-0.6-5-0.6h-8.8v31.4h8.2
			c4,0,7.5-1.3,10.4-3.8C955.1,297.6,956.6,293.5,956.6,287.9z"/>
	</g>
	<g>
		<path fill="currentColor" class="st0" d="M435.1,403.4h13v73.2h-13V403.4z"/>
		<path fill="currentColor" class="st0" d="M471.2,403.4h17.3l34,54.8h0.2v-54.8h13v73.2h-16.5L484.4,420h-0.2v56.5h-13V403.4z"/>
		<path fill="currentColor" class="st0" d="M594.2,418.7c-1.4-1.8-3.3-3.3-5.8-4.5c-2.5-1.2-5-1.8-7.6-1.8c-1.5,0-3,0.2-4.6,0.6c-1.5,0.4-2.9,1-4.1,1.8
			c-1.2,0.8-2.3,1.8-3.1,3.1c-0.8,1.3-1.2,2.8-1.2,4.6c0,1.7,0.3,3.1,1,4.2c0.7,1.2,1.6,2.2,2.8,3c1.2,0.8,2.7,1.5,4.4,2.2
			c1.7,0.6,3.6,1.2,5.7,1.9c2.3,0.8,4.8,1.6,7.3,2.6c2.5,1,4.8,2.2,6.9,3.8c2.1,1.6,3.8,3.6,5.2,6c1.3,2.4,2,5.4,2,9
			c0,3.9-0.7,7.4-2.2,10.3s-3.4,5.4-5.8,7.3c-2.4,1.9-5.2,3.4-8.5,4.3c-3.2,1-6.6,1.4-10.2,1.4c-4.8,0-9.4-0.9-14-2.6
			c-4.5-1.8-8.3-4.4-11.2-7.8l9.3-8.7c1.8,2.5,4.2,4.4,7.2,5.9c3,1.4,5.9,2.2,8.8,2.2c1.5,0,3.1-0.2,4.7-0.6c1.6-0.4,3-1,4.3-1.9
			c1.3-0.9,2.3-2,3.1-3.4c0.8-1.3,1.2-3,1.2-5c0-1.9-0.4-3.5-1.3-4.8c-0.9-1.3-2.1-2.4-3.6-3.3c-1.5-0.9-3.3-1.7-5.4-2.4
			c-2.1-0.7-4.2-1.4-6.5-2.2c-2.2-0.7-4.4-1.5-6.6-2.5s-4.2-2.2-5.9-3.8c-1.8-1.6-3.2-3.5-4.3-5.8s-1.7-5.2-1.7-8.6
			c0-3.7,0.8-6.9,2.3-9.6c1.6-2.7,3.6-4.9,6.1-6.7c2.5-1.8,5.4-3.1,8.6-3.9c3.2-0.9,6.5-1.3,9.8-1.3c3.7,0,7.5,0.7,11.3,2
			c3.8,1.3,7.1,3.3,10,5.9L594.2,418.7z"/>
		<path fill="currentColor" class="st0" d="M636.2,414.8h-22.4v-11.4h57.9v11.4h-22.4v61.8h-13V414.8z"/>
		<path fill="currentColor" class="st0" d="M687,403.4h13v73.2h-13V403.4z"/>
		<path fill="currentColor" class="st0" d="M737.9,414.8h-22.4v-11.4h57.9v11.4h-22.4v61.8h-13V414.8z"/>
		<path fill="currentColor" class="st0" d="M846.6,449.7c0,4.4-0.8,8.4-2.3,11.9c-1.5,3.5-3.6,6.6-6.2,9c-2.6,2.5-5.7,4.4-9.3,5.7c-3.6,1.3-7.5,2-11.7,2
			s-8.1-0.7-11.7-2c-3.6-1.3-6.7-3.3-9.4-5.7c-2.7-2.5-4.7-5.5-6.2-9c-1.5-3.5-2.2-7.5-2.2-11.9v-46.3h13v45.8
			c0,2.1,0.3,4.3,0.8,6.4c0.6,2.1,1.5,4,2.7,5.6c1.3,1.7,3,3,5.1,4c2.1,1,4.7,1.5,7.8,1.5s5.7-0.5,7.8-1.5c2.1-1,3.8-2.4,5.1-4
			c1.3-1.7,2.2-3.5,2.7-5.6c0.6-2.1,0.8-4.2,0.8-6.4v-45.8h13V449.7z"/>
		<path fill="currentColor" class="st0" d="M883.4,414.8H861v-11.4h57.9v11.4h-22.4v61.8h-13V414.8z"/>
		<path fill="currentColor" class="st0" d="M934.3,403.4h48.5v11.4h-35.4v18.6h33.6v11h-33.6V465h37.3v11.6h-50.3V403.4z"/>
	</g>
</g>
</svg>
